HIERARCHY
ROOT Pelvis
{
	OFFSET 0.000000 0.000000 0.000000
	CHANNELS 6 Xposition Yposition Zposition Xrotation Yrotation Zrotation
	JOINT LeftUpLeg_virtual
	{
		OFFSET 0.000000 0.000000 0.000000
		CHANNELS 3 Xrotation Yrotation Zrotation
		JOINT LeftUpLeg
		{
			OFFSET 18.735201 -5.666702 -4.541200
			CHANNELS 3 Xrotation Yrotation Zrotation
			JOINT LeftLeg
			{
				OFFSET -0.021200 -31.938179 0.493100
				CHANNELS 3 Xrotation Yrotation Zrotation
				JOINT LeftFoot
				{
					OFFSET 0.021200 -31.938179 -4.336299
					CHANNELS 3 Xrotation Yrotation Zrotation
					JOINT LeftToeBase
					{
						OFFSET 0.943001 -26.722000 15.023500
						CHANNELS 3 Xrotation Yrotation Zrotation
						End Site
						{
							OFFSET 0 0 0
						}
					}
				}
			}
		}
	}
	JOINT RightUpLeg_virtual
	{
		OFFSET 0.000000 0.000000 0.000000
		CHANNELS 3 Xrotation Yrotation Zrotation
		JOINT RightUpLeg
		{
			OFFSET -18.735201 -5.666702 -4.541200
			CHANNELS 3 Xrotation Yrotation Zrotation
			JOINT RightLeg
			{
				OFFSET 0.018946 -31.938133 0.493100
				CHANNELS 3 Xrotation Yrotation Zrotation
				JOINT RightFoot
				{
					OFFSET -0.018946 -31.938126 -4.336299
					CHANNELS 3 Xrotation Yrotation Zrotation
					JOINT RightToeBase
					{
						OFFSET -0.943001 -26.722004 15.023500
						CHANNELS 3 Xrotation Yrotation Zrotation
						End Site
						{
							OFFSET 0 0 0
						}
					}
				}
			}
		}
	}
	JOINT Hips_virtual
	{
		OFFSET 0.000000 0.000000 0.000000
		CHANNELS 3 Xrotation Yrotation Zrotation
		JOINT Hips
		{
			OFFSET -0.000000 -0.000000 -0.000000
			CHANNELS 3 Xrotation Yrotation Zrotation
			JOINT Spine
			{
				OFFSET 0.000000 10.199997 -0.299500
				CHANNELS 3 Xrotation Yrotation Zrotation
				JOINT Spine1
				{
					OFFSET 0.000000 11.900002 -1.516600
					CHANNELS 3 Xrotation Yrotation Zrotation
					JOINT Spine2
					{
						OFFSET 0.000000 13.600006 -2.842500
						CHANNELS 3 Xrotation Yrotation Zrotation
						JOINT Neck_virtual
						{
							OFFSET 0.000000 0.000000 0.000000
							CHANNELS 3 Xrotation Yrotation Zrotation
							JOINT Neck
							{
								OFFSET 0.000000 9.624100 -2.890100
								CHANNELS 3 Xrotation Yrotation Zrotation
								JOINT Head
								{
									OFFSET 0.000000 14.068802 -1.351900
									CHANNELS 3 Xrotation Yrotation Zrotation
									End Site
									{
										OFFSET 0 0 0
									}
								}
							}
						}
						JOINT LeftShoulder_virtual
						{
							OFFSET 0.000000 0.000000 0.000000
							CHANNELS 3 Xrotation Yrotation Zrotation
							JOINT LeftShoulder
							{
								OFFSET 15.263000 10.923401 -0.547700
								CHANNELS 3 Xrotation Yrotation Zrotation
								JOINT LeftArm
								{
									OFFSET 25.438599 -2.830597 -13.032500
									CHANNELS 3 Xrotation Yrotation Zrotation
									JOINT LeftForeArm
									{
										OFFSET 29.960503 0.000000 0.000000
										CHANNELS 3 Xrotation Yrotation Zrotation
										JOINT LeftHand
										{
											OFFSET 27.849251 0.000000 0.000000
											CHANNELS 3 Xrotation Yrotation Zrotation
											End Site
											{
												OFFSET 0 0 0
											}
										}
									}
								}
							}
						}
						JOINT RightShoulder_virtual
						{
							OFFSET 0.000000 0.000000 0.000000
							CHANNELS 3 Xrotation Yrotation Zrotation
							JOINT RightShoulder
							{
								OFFSET -15.263000 10.923401 -0.547700
								CHANNELS 3 Xrotation Yrotation Zrotation
								JOINT RightArm
								{
									OFFSET -25.438599 -2.830597 -13.032500
									CHANNELS 3 Xrotation Yrotation Zrotation
									JOINT RightForeArm
									{
										OFFSET -29.960503 0.000000 0.000000
										CHANNELS 3 Xrotation Yrotation Zrotation
										JOINT RightHand
										{
											OFFSET -27.849251 0.000000 0.000000
											CHANNELS 3 Xrotation Yrotation Zrotation
											End Site
											{
												OFFSET 0 0 0
											}
										}
									}
								}
							}
						}
					}
				}
			}
		}
	}
}
MOTION
Frames: 11
Frame Time: 0.03333333
1.861163 43.383720 -0.672671 0.000000 0.000000 0.000000 -18.400007 -24.473471 19.828628 -67.879608 -10.765490 34.950365 85.416044 0.424647 -6.406741 25.646609 1.983889 -14.153744 0.000000 0.000000 0.000000 2.231546 -15.992051 0.006628 -30.245386 -8.139637 -17.169159 99.710797 8.780246 2.094202 30.469720 9.524273 25.481998 0.000000 0.000000 0.000000 -2.263402 -14.886614 1.923333 -1.604475 -1.885235 6.886586 4.901230 -2.330551 -5.377997 1.921450 -0.388829 -3.206681 0.000000 0.000000 0.000000 2.681091 -0.588438 -1.409403 -0.960638 0.700126 -0.299745 0.000000 0.000000 0.000000 1.779607 -0.428109 -0.727729 0.689314 -1.746584 -5.250967 -11.556606 -20.430119 -54.328653 2.451367 -61.738380 -2.303454 0.000000 0.000000 0.000000 3.918392 0.496435 -1.291584 3.152941 8.343495 1.064307 -2.645275 30.919563 37.416125 131.747792 87.165583 -129.194422 0.000000 0.000000 0.000000 
1.866667 43.394653 -0.761121 0.000000 0.000000 0.000000 -18.385150 -24.477600 19.889881 -67.879144 -10.791499 34.998859 85.573132 0.396845 -6.438224 25.813723 1.961505 -14.246684 0.000000 0.000000 0.000000 2.351660 -15.705142 0.040592 -30.023268 -8.094116 -17.088836 99.668026 8.796913 2.116440 30.466814 9.531221 25.514790 0.000000 0.000000 0.000000 -2.257117 -15.098441 1.949757 -1.393335 -1.840421 6.864818 4.861487 -2.403313 -5.471552 1.921081 -0.405571 -3.244836 0.000000 0.000000 0.000000 2.712386 -0.614684 -1.441897 -0.964870 0.716161 -0.292518 0.000000 0.000000 0.000000 1.802857 -0.458072 -0.749541 0.714205 -1.651061 -5.158362 -11.624467 -20.415762 -54.410301 2.403250 -61.785140 -2.378226 0.000000 0.000000 0.000000 3.942427 0.508320 -1.298126 3.211049 8.315263 1.109516 -2.573493 30.963645 37.148333 139.063580 86.912948 -136.516261 0.000000 0.000000 0.000000 
1.875703 43.418583 -0.918521 0.000000 0.000000 0.000000 -18.338599 -24.492739 19.990164 -67.866139 -10.829810 35.081221 85.839502 0.350208 -6.492340 26.095578 1.923866 -14.409741 0.000000 0.000000 0.000000 2.578658 -15.184776 0.107852 -29.608173 -8.014101 -16.940116 99.571160 8.823594 2.150368 30.446716 9.541102 25.559770 0.000000 0.000000 0.000000 -2.254468 -15.498524 2.001112 -0.982870 -1.711390 6.834842 4.786008 -2.529963 -5.636973 1.925055 -0.437808 -3.314274 0.000000 0.000000 0.000000 2.767400 -0.661308 -1.502398 -0.971729 0.744889 -0.278745 0.000000 0.000000 0.000000 1.846573 -0.514080 -0.792702 0.761601 -1.479671 -4.988381 -11.719467 -20.404575 -54.552458 2.326434 -61.904265 -2.508861 0.000000 0.000000 0.000000 3.992990 0.530155 -1.308849 3.320140 8.257130 1.195441 -2.469661 31.026681 36.680206 149.425606 86.366813 -146.879270 0.000000 0.000000 0.000000 
1.885481 43.458282 -1.114787 0.000000 0.000000 0.000000 -18.238589 -24.525731 20.095875 -67.824564 -10.859744 35.174969 86.139327 0.298661 -6.555177 26.409288 1.882337 -14.606790 0.000000 0.000000 0.000000 2.884515 -14.520677 0.204825 -29.056479 -7.916706 -16.744887 99.407174 8.849165 2.180628 30.389206 9.546328 25.585841 0.000000 0.000000 0.000000 -2.269462 -16.044181 2.075251 -0.398517 -1.437643 6.816008 4.683652 -2.680408 -5.838718 1.939655 -0.483233 -3.403087 0.000000 0.000000 0.000000 2.834117 -0.719149 -1.583049 -0.978702 0.780703 -0.259631 0.000000 0.000000 0.000000 1.904735 -0.589167 -0.855244 0.826884 -1.263109 -4.767169 -11.782568 -20.421017 -54.719651 2.249387 -62.131731 -2.664539 0.000000 0.000000 0.000000 4.073167 0.558676 -1.320337 3.467905 8.166753 1.313795 -2.397796 31.067450 36.124013 158.729840 85.569908 -156.164216 0.000000 0.000000 0.000000 
1.893901 43.515491 -1.321277 0.000000 0.000000 0.000000 -18.073628 -24.574800 20.177308 -67.744535 -10.862915 35.259342 86.396579 0.255015 -6.613189 26.672321 1.847671 -14.802454 0.000000 0.000000 0.000000 3.228252 -13.812660 0.323320 -28.443751 -7.818599 -16.530854 99.172755 8.861430 2.194861 30.278768 9.536868 25.565567 0.000000 0.000000 0.000000 -2.312339 -16.680761 2.170253 0.318704 -0.966964 6.822615 4.568627 -2.824509 -6.039464 1.968737 -0.538643 -3.497447 0.000000 0.000000 0.000000 2.900835 -0.779185 -1.674454 -0.983332 0.817541 -0.236710 0.000000 0.000000 0.000000 1.968406 -0.674800 -0.932600 0.903496 -1.031109 -4.525414 -11.769014 -20.481774 -54.873518 2.193851 -62.492625 -2.814163 0.000000 0.000000 0.000000 4.183819 0.590292 -1.329681 3.639703 8.043346 1.454152 -2.422496 31.041803 35.600640 165.740414 84.651186 -163.125148 0.000000 0.000000 0.000000 
1.900434 43.589912 -1.518487 0.000000 0.000000 0.000000 -17.850264 -24.625354 20.219689 -67.627411 -10.829707 35.322593 86.556481 0.225888 -6.657454 26.826468 1.825419 -14.973738 0.000000 0.000000 0.000000 3.565041 -13.145106 0.451560 -27.847762 -7.731478 -16.325682 98.879631 8.850504 2.188859 30.111347 9.502385 25.485698 0.000000 0.000000 0.000000 -2.384784 -17.349206 2.284248 1.113462 -0.283776 6.856704 4.459191 -2.941155 -6.211180 2.011575 -0.600045 -3.585001 0.000000 0.000000 0.000000 2.959986 -0.834802 -1.767593 -0.983954 0.850796 -0.211649 0.000000 0.000000 0.000000 2.027756 -0.762469 -1.017624 0.983498 -0.803740 -4.292540 -11.674806 -20.584438 -54.985615 2.160689 -62.984412 -2.939052 0.000000 0.000000 0.000000 4.321276 0.622051 -1.335237 3.821230 7.890539 1.606509 -2.587202 30.914717 35.204229 170.845899 83.735339 -168.151771 0.000000 0.000000 0.000000 
1.906183 43.679771 -1.696215 0.000000 0.000000 0.000000 -17.588704 -24.654087 20.225105 -67.482501 -10.760250 35.363806 86.593719 0.209814 -6.685215 26.846883 1.813797 -15.114601 0.000000 0.000000 0.000000 3.860726 -12.569790 0.577506 -27.326055 -7.660791 -16.151055 98.550156 8.811087 2.166796 29.894044 9.435039 25.349719 0.000000 0.000000 0.000000 -2.480774 -17.994564 2.414047 1.923697 0.577483 6.908695 4.374055 -3.021622 -6.340957 2.063598 -0.662937 -3.657460 0.000000 0.000000 0.000000 3.009518 -0.882114 -1.855286 -0.979891 0.878518 -0.186075 0.000000 0.000000 0.000000 2.075202 -0.844891 -1.101948 1.058645 -0.589615 -4.092309 -11.543309 -20.706261 -55.047455 2.124184 -63.572771 -3.041965 0.000000 0.000000 0.000000 4.476811 0.652299 -1.336360 4.000163 7.718450 1.763658 -2.902340 30.668656 34.980158 174.657977 82.900076 -171.868077 0.000000 0.000000 0.000000 
1.913422 43.783146 -1.848347 0.000000 0.000000 0.000000 -17.310047 -24.639376 20.206403 -67.318495 -10.660981 35.389648 86.509571 0.199071 -6.698697 26.738447 1.805024 -15.232918 0.000000 0.000000 0.000000 4.104651 -12.100424 0.692336 -26.897555 -7.607012 -16.018721 98.207458 8.743171 2.137388 29.640477 9.332041 25.172968 0.000000 0.000000 0.000000 -2.591393 -18.575271 2.553562 2.692640 1.539899 6.964514 4.327467 -3.067222 -6.430271 2.118901 -0.723024 -3.711622 0.000000 0.000000 0.000000 3.051543 -0.919094 -1.932917 -0.971270 0.901375 -0.161381 0.000000 0.000000 0.000000 2.107758 -0.916479 -1.177958 1.121769 -0.389653 -3.939424 -11.449765 -20.812799 -55.074069 2.038054 -64.200445 -3.148210 0.000000 0.000000 0.000000 4.638112 0.680720 -1.332893 4.166776 7.543111 1.921869 -3.345122 30.307783 34.921439 177.601215 82.180836 -174.716963 0.000000 0.000000 0.000000 
1.924868 43.899128 -1.967615 0.000000 0.000000 0.000000 -17.024405 -24.571846 20.178843 -67.136026 -10.540259 35.409224 86.324097 0.183938 -6.702399 26.526815 1.789146 -15.342825 0.000000 0.000000 0.000000 4.312992 -11.719414 0.792231 -26.539043 -7.567875 -15.930028 97.866714 8.651197 2.109051 29.365650 9.196744 24.974590 0.000000 0.000000 0.000000 -2.709329 -19.071350 2.693564 3.380529 2.508934 7.014699 4.325088 -3.084287 -6.489213 2.172386 -0.777182 -3.748718 0.000000 0.000000 0.000000 3.089522 -0.944908 -1.998495 -0.958784 0.921460 -0.138568 0.000000 0.000000 0.000000 2.127233 -0.973336 -1.240293 1.167979 -0.201849 -3.836933 -11.471041 -20.871697 -55.098433 1.852575 -64.803510 -3.296055 0.000000 0.000000 0.000000 4.792138 0.707822 -1.325103 4.313795 7.382915 2.079321 -3.867209 29.857178 34.980213 179.912278 81.590148 -176.952416 0.000000 0.000000 0.000000 
1.942660 44.027988 -2.044544 0.000000 0.000000 0.000000 -16.727246 -24.459051 20.154719 -66.926449 -10.405791 35.430479 86.068532 0.156892 -6.700422 26.249395 1.758067 -15.456744 0.000000 0.000000 0.000000 4.520099 -11.393345 0.878505 -26.199322 -7.540654 -15.878043 97.532970 8.542052 2.086773 29.083331 9.037506 24.770747 0.000000 0.000000 0.000000 -2.829542 -19.486415 2.823639 3.968778 3.399755 7.060413 4.362801 -3.079898 -6.529437 2.220564 -0.824244 -3.772675 0.000000 0.000000 0.000000 3.126025 -0.960111 -2.052297 -0.943514 0.940644 -0.118257 0.000000 0.000000 0.000000 2.138239 -1.013096 -1.286276 1.195131 -0.023590 -3.775764 -11.655132 -20.864093 -55.158904 1.535627 -65.327092 -3.519964 0.000000 0.000000 0.000000 4.928104 0.734029 -1.314066 4.436049 7.253400 2.233117 -4.405511 29.357113 35.086999 -178.289835 81.132040 -178.704386 0.000000 0.000000 0.000000 
1.967396 44.170448 -2.070807 0.000000 0.000000 0.000000 -16.405735 -24.321906 20.142750 -66.678014 -10.264699 35.459443 85.778877 0.114869 -6.695174 25.947465 1.707984 -15.580841 0.000000 0.000000 0.000000 4.761927 -11.090445 0.956380 -25.824573 -7.523624 -15.850806 97.205497 8.422809 2.071625 28.805643 8.864854 24.571430 0.000000 0.000000 0.000000 -2.946698 -19.840894 2.935539 4.456497 4.156276 7.113738 4.428678 -3.060186 -6.559046 2.261263 -0.864912 -3.788088 0.000000 0.000000 0.000000 3.161868 -0.967201 -2.096246 -0.926770 0.959383 -0.100851 0.000000 0.000000 0.000000 2.145411 -1.034859 -1.315376 1.203652 0.149073 -3.737279 -12.003444 -20.788772 -55.284760 1.088527 -65.734997 -3.833875 0.000000 0.000000 0.000000 5.039474 0.758937 -1.301867 4.530214 7.163145 2.377176 -4.893608 28.854069 35.170266 -176.948413 80.805632 179.967644 0.000000 0.000000 0.000000 
